<svg width="32" height="32" viewBox="0 0 32 32" fill="none" xmlns="http://www.w3.org/2000/svg">
<path d="M26.2231 25.746H20.2864C24.0105 24.1162 26.667 20.3862 26.667 15.9838C26.667 10.0978 21.9036 5.33398 16.0172 5.33398C10.1312 5.33403 5.36719 10.097 5.36719 15.9838C5.36719 18.8284 6.47503 21.5027 8.48634 23.5142C9.44156 24.4695 10.5464 25.2201 11.7475 25.7459H5.8108C5.56587 25.7459 5.36719 25.9448 5.36719 26.1897C5.36719 26.4351 5.56592 26.6336 5.8108 26.6336H26.2231C26.4681 26.6336 26.667 26.4351 26.667 26.1897C26.667 25.9449 26.4681 25.746 26.2231 25.746ZM6.2546 15.9838C6.2546 10.6006 10.634 6.22126 16.0172 6.22126C21.3999 6.22126 25.7793 10.6007 25.7793 15.9838C25.7793 21.3666 21.3999 25.7459 16.0172 25.7459C10.634 25.746 6.2546 21.3666 6.2546 15.9838Z" fill="black" stroke="black" stroke-width="0.5"/>
<path d="M12.9097 11.1006C11.931 11.1006 11.1348 11.8968 11.1348 12.8754C11.1348 13.8544 11.931 14.6506 12.9097 14.6506C13.8884 14.6506 14.6846 13.8544 14.6846 12.8754C14.6846 11.8968 13.8884 11.1006 12.9097 11.1006ZM12.9097 13.7631C12.4203 13.7631 12.0222 13.3648 12.0222 12.8754C12.0222 12.3861 12.4203 11.9882 12.9097 11.9882C13.399 11.9882 13.7973 12.3861 13.7973 12.8754C13.7973 13.3648 13.399 13.7631 12.9097 13.7631Z" fill="black" stroke="black" stroke-width="0.2"/>
<path d="M19.1245 11.1006C18.1458 11.1006 17.3496 11.8968 17.3496 12.8754C17.3496 13.8544 18.1458 14.6506 19.1245 14.6506C20.1032 14.6506 20.8994 13.8544 20.8994 12.8754C20.8994 11.8968 20.1032 11.1006 19.1245 11.1006ZM19.1245 13.7631C18.6352 13.7631 18.2373 13.3648 18.2373 12.8754C18.2373 12.3861 18.6352 11.9882 19.1245 11.9882C19.6138 11.9882 20.0122 12.3861 20.0122 12.8754C20.0122 13.3648 19.6139 13.7631 19.1245 13.7631Z" fill="black" stroke="black" stroke-width="0.2"/>
<path d="M12.9097 17.3145C11.931 17.3145 11.1348 18.1107 11.1348 19.0894C11.1348 20.0681 11.931 20.8647 12.9097 20.8647C13.8884 20.8647 14.6846 20.0681 14.6846 19.0894C14.6846 18.1107 13.8884 17.3145 12.9097 17.3145ZM12.9097 19.977C12.4203 19.977 12.0222 19.5787 12.0222 19.0894C12.0222 18.6001 12.4203 18.2021 12.9097 18.2021C13.399 18.2021 13.7973 18.6001 13.7973 19.0894C13.7973 19.5788 13.399 19.977 12.9097 19.977Z" fill="black" stroke="black" stroke-width="0.2"/>
<path d="M19.1245 17.3145C18.1458 17.3145 17.3496 18.1107 17.3496 19.0894C17.3496 20.0681 18.1458 20.8647 19.1245 20.8647C20.1032 20.8647 20.8994 20.0681 20.8994 19.0894C20.8994 18.1107 20.1032 17.3145 19.1245 17.3145ZM19.1245 19.977C18.6352 19.977 18.2373 19.5787 18.2373 19.0894C18.2373 18.6001 18.6352 18.2021 19.1245 18.2021C19.6138 18.2021 20.0122 18.6001 20.0122 19.0894C20.0122 19.5788 19.6139 19.977 19.1245 19.977Z" fill="black" stroke="black" stroke-width="0.2"/>
</svg>
