<svg width="32" height="32" viewBox="0 0 32 32" fill="none" xmlns="http://www.w3.org/2000/svg">
<path d="M6.66602 21.9997H14.9993V23.6663H6.66602V21.9997ZM6.66602 16.9997H14.9993V18.6663H6.66602V16.9997ZM24.9993 13.6663H8.33268C7.89065 13.6663 7.46673 13.4907 7.15417 13.1782C6.84161 12.8656 6.66602 12.4417 6.66602 11.9997V6.99967C6.66602 6.55765 6.84161 6.13372 7.15417 5.82116C7.46673 5.5086 7.89065 5.33301 8.33268 5.33301H24.9993C25.4414 5.33301 25.8653 5.5086 26.1779 5.82116C26.4904 6.13372 26.666 6.55765 26.666 6.99967V11.9997C26.666 12.4417 26.4904 12.8656 26.1779 13.1782C25.8653 13.4907 25.4414 13.6663 24.9993 13.6663ZM8.33268 6.99967V11.9997H24.9993V6.99967H8.33268ZM24.9993 25.333H19.9993C19.5573 25.333 19.1334 25.1574 18.8208 24.8449C18.5083 24.5323 18.3327 24.1084 18.3327 23.6663V18.6663C18.3327 18.2243 18.5083 17.8004 18.8208 17.4878C19.1334 17.1753 19.5573 16.9997 19.9993 16.9997H24.9993C25.4414 16.9997 25.8653 17.1753 26.1779 17.4878C26.4904 17.8004 26.666 18.2243 26.666 18.6663V23.6663C26.666 24.1084 26.4904 24.5323 26.1779 24.8449C25.8653 25.1574 25.4414 25.333 24.9993 25.333ZM19.9993 18.6663V23.6663H24.9993V18.6663H19.9993Z" fill="black"/>
</svg>
