<svg width="32" height="32" viewBox="0 0 32 32" fill="none" xmlns="http://www.w3.org/2000/svg">
<path d="M16.4402 15.025C18.3801 15.025 19.9527 13.4524 19.9527 11.5125C19.9527 9.5726 18.3801 8 16.4402 8C14.5003 8 12.9277 9.5726 12.9277 11.5125C12.9277 13.4524 14.5003 15.025 16.4402 15.025Z" stroke="black" stroke-linecap="round" stroke-linejoin="round"/>
<path fill-rule="evenodd" clip-rule="evenodd" d="M18.287 17.333C17.7266 17.7238 16.7056 17.9599 15.999 17.9599C15.2931 17.9599 14.2589 17.7238 13.6986 17.333C11.7233 18.0097 10.666 20.2218 10.666 22.5306C10.666 22.5769 10.6776 22.6201 10.6794 22.6663H21.3199C21.3205 22.6201 21.3327 22.5769 21.3327 22.5306C21.3327 20.2218 20.2626 18.0097 18.287 17.333Z" stroke="black" stroke-linecap="round" stroke-linejoin="round"/>
<path fill-rule="evenodd" clip-rule="evenodd" d="M21.9173 22.667H26.6579C26.6586 22.6308 26.6654 22.5996 26.6654 22.5634C26.6654 20.7958 26.0364 19.1844 24.8745 18.667C24.545 18.9661 23.9442 19.1468 23.5289 19.1468C23.1135 19.1468 22.5055 18.9661 22.1762 18.667C21.8525 18.8114 21.5702 19.0463 21.332 19.3494C21.332 19.3494 22.0803 20.9846 21.9173 22.667Z" stroke="black" stroke-linecap="round" stroke-linejoin="round"/>
<path d="M9.34263 16.1657C10.8209 16.1657 12.0193 14.9674 12.0193 13.4891C12.0193 12.0109 10.8209 10.8125 9.34263 10.8125C7.86438 10.8125 6.66602 12.0109 6.66602 13.4891C6.66602 14.9674 7.86438 16.1657 9.34263 16.1657Z" stroke="black" stroke-linecap="round" stroke-linejoin="round"/>
<path fill-rule="evenodd" clip-rule="evenodd" d="M11.2674 22.667H5.34137C5.34047 22.6308 5.33203 22.5996 5.33203 22.5634C5.33203 20.7958 6.11851 19.1844 7.57123 18.667C7.98285 18.9661 8.73316 19.1468 9.25266 19.1468C9.77216 19.1468 10.5318 18.9661 10.9434 18.667C11.3484 18.8114 11.7007 19.0463 11.9987 19.3494C11.9987 19.3494 11.0628 20.9846 11.2674 22.667Z" stroke="black" stroke-linecap="round" stroke-linejoin="round"/>
<path d="M23.534 16.1657C25.0123 16.1657 26.2107 14.9674 26.2107 13.4891C26.2107 12.0109 25.0123 10.8125 23.534 10.8125C22.0558 10.8125 20.8574 12.0109 20.8574 13.4891C20.8574 14.9674 22.0558 16.1657 23.534 16.1657Z" stroke="black" stroke-linecap="round" stroke-linejoin="round"/>
</svg>
