<svg width="35" height="35" viewBox="0 0 35 35" fill="none" xmlns="http://www.w3.org/2000/svg">
<path d="M10.9167 10.9688C12.8958 8.98958 15.2569 8 18 8C20.7431 8 23.0868 8.98958 25.0313 10.9688C27.0104 12.9132 28 15.2569 28 18C28 20.7431 27.0104 23.1042 25.0313 25.0833C23.0868 27.0278 20.7431 28 18 28C15.2569 28 12.8958 27.0278 10.9167 25.0833C8.97222 23.1042 8 20.7431 8 18C8 15.2569 8.97222 12.9132 10.9167 10.9688ZM23.8854 12.1146C22.2535 10.4826 20.2917 9.66667 18 9.66667C15.7083 9.66667 13.7465 10.4826 12.1146 12.1146C10.4826 13.7465 9.66667 15.7083 9.66667 18C9.66667 20.2917 10.4826 22.2535 12.1146 23.8854C13.7465 25.5174 15.7083 26.3333 18 26.3333C20.2917 26.3333 22.2535 25.5174 23.8854 23.8854C25.5174 22.2535 26.3333 20.2917 26.3333 18C26.3333 15.7083 25.5174 13.7465 23.8854 12.1146ZM17.375 10.7604C17.5486 10.5868 17.7569 10.5 18 10.5C18.2431 10.5 18.434 10.5868 18.5729 10.7604C18.7465 10.8993 18.8333 11.0903 18.8333 11.3333C18.8333 11.5764 18.7465 11.7847 18.5729 11.9583C18.434 12.0972 18.2431 12.1667 18 12.1667C17.7569 12.1667 17.5486 12.0972 17.375 11.9583C17.2361 11.7847 17.1667 11.5764 17.1667 11.3333C17.1667 11.0903 17.2361 10.8993 17.375 10.7604ZM12.6875 12.7396C12.8611 12.566 13.0521 12.4792 13.2604 12.4792C13.5035 12.4792 13.7118 12.566 13.8854 12.7396C14.059 12.8785 14.1458 13.0694 14.1458 13.3125C14.1458 13.5208 14.059 13.7118 13.8854 13.8854C13.7118 14.059 13.5035 14.1458 13.2604 14.1458C13.0521 14.1458 12.8611 14.059 12.6875 13.8854C12.5486 13.7118 12.4792 13.5208 12.4792 13.3125C12.4792 13.0694 12.5486 12.8785 12.6875 12.7396ZM22.1146 12.6875L23.3125 13.8854L19.6146 17.5833C19.6493 17.7222 19.6667 17.8611 19.6667 18C19.6667 18.4514 19.4931 18.8507 19.1458 19.1979C18.8333 19.5104 18.4514 19.6667 18 19.6667C17.5486 19.6667 17.1493 19.5104 16.8021 19.1979C16.4896 18.8507 16.3333 18.4514 16.3333 18C16.3333 17.5486 16.4896 17.1667 16.8021 16.8542C17.1493 16.5069 17.5486 16.3333 18 16.3333C18.1389 16.3333 18.2778 16.3507 18.4167 16.3854L22.1146 12.6875ZM10.7083 17.4271C10.8819 17.2535 11.0903 17.1667 11.3333 17.1667C11.5764 17.1667 11.7674 17.2535 11.9063 17.4271C12.0799 17.566 12.1667 17.7569 12.1667 18C12.1667 18.2431 12.0799 18.4514 11.9063 18.625C11.7674 18.7639 11.5764 18.8333 11.3333 18.8333C11.0903 18.8333 10.8819 18.7639 10.7083 18.625C10.5694 18.4514 10.5 18.2431 10.5 18C10.5 17.7569 10.5694 17.566 10.7083 17.4271ZM24.0417 17.4271C24.2153 17.2535 24.4236 17.1667 24.6667 17.1667C24.9097 17.1667 25.1007 17.2535 25.2396 17.4271C25.4132 17.566 25.5 17.7569 25.5 18C25.5 18.2431 25.4132 18.4514 25.2396 18.625C25.1007 18.7639 24.9097 18.8333 24.6667 18.8333C24.4236 18.8333 24.2153 18.7639 24.0417 18.625C23.9028 18.4514 23.8333 18.2431 23.8333 18C23.8333 17.7569 23.9028 17.566 24.0417 17.4271ZM12.6875 22.1146C12.8611 21.941 13.0521 21.8542 13.2604 21.8542C13.5035 21.8542 13.7118 21.941 13.8854 22.1146C14.059 22.2882 14.1458 22.4965 14.1458 22.7396C14.1458 22.9479 14.059 23.1389 13.8854 23.3125C13.7118 23.4514 13.5035 23.5208 13.2604 23.5208C13.0521 23.5208 12.8611 23.4514 12.6875 23.3125C12.5486 23.1389 12.4792 22.9479 12.4792 22.7396C12.4792 22.4965 12.5486 22.2882 12.6875 22.1146ZM22.1146 22.1146C22.2882 21.941 22.4792 21.8542 22.6875 21.8542C22.9306 21.8542 23.1215 21.941 23.2604 22.1146C23.434 22.2882 23.5208 22.4965 23.5208 22.7396C23.5208 22.9479 23.434 23.1389 23.2604 23.3125C23.1215 23.4514 22.9306 23.5208 22.6875 23.5208C22.4792 23.5208 22.2882 23.4514 22.1146 23.3125C21.941 23.1389 21.8542 22.9479 21.8542 22.7396C21.8542 22.4965 21.941 22.2882 22.1146 22.1146Z" fill="black"/>
</svg>
