<svg width="32" height="32" viewBox="0 0 32 32" fill="none" xmlns="http://www.w3.org/2000/svg">
<path d="M22.7178 6.48188H22.8456C23.3602 6.48188 23.7966 6.81666 23.9489 7.28035L25.1297 10.8823L19.8639 10.8829L18.4195 6.48174L22.7178 6.48188ZM17.2133 6.48215L18.6563 10.883L14.5072 10.883L15.95 6.48162L17.2133 6.48215ZM13.2994 10.883L8.03394 10.8827L9.21445 7.28024C9.36673 6.81656 9.80314 6.48177 10.3178 6.48177L14.7443 6.48086L13.2994 10.883ZM18.8004 15.7732L16.9862 14.7272C16.9241 14.6914 16.8524 14.662 16.7738 14.6619C16.3837 14.6628 16.3831 14.6628 16.3831 14.6628C16.3041 14.6628 16.2318 14.6952 16.1642 14.7341L14.3628 15.7731V12.0307L18.8004 12.0302V15.7732ZM10.1016 20.4395H10.0996C9.889 20.4395 9.71862 20.61 9.7183 20.8206L9.71771 21.209C9.71756 21.3103 9.75767 21.4076 9.82925 21.4792C9.90083 21.5509 9.99797 21.5912 10.0993 21.5913L13.9675 21.5929C14.0688 21.5924 14.1659 21.5522 14.2375 21.4805C14.3091 21.4089 14.3493 21.3117 14.3492 21.2104L14.3489 20.822C14.3487 20.6114 14.1779 20.4407 13.9673 20.4407L10.1016 20.4395ZM10.1024 22.6633H10.0999C9.88934 22.6633 9.71876 22.8338 9.71844 23.0444L9.71786 23.4327C9.71771 23.5341 9.75783 23.6313 9.8294 23.703C9.90097 23.7747 9.99812 23.815 10.0994 23.815L16.2333 23.8173C16.3346 23.8169 16.4317 23.7766 16.5033 23.705C16.5749 23.6333 16.6151 23.5361 16.615 23.4348L16.6146 23.0465C16.6144 22.8358 16.4437 22.6652 16.2331 22.6651L10.1024 22.6633ZM18.3059 22.6651H18.2995C18.089 22.6651 17.9193 22.8356 17.919 23.0462L17.9184 23.4344C17.9183 23.5358 17.9584 23.633 18.03 23.7047C18.1015 23.7764 18.1987 23.8167 18.3 23.8167L18.6945 23.8173C18.7958 23.8169 18.8929 23.7766 18.9645 23.705C19.0361 23.6333 19.0763 23.5361 19.0762 23.4348L19.0758 23.0465C19.0757 22.8359 18.9049 22.6653 18.6943 22.6652L18.3059 22.6651ZM25.3475 24.3772V24.3782C25.3377 25.0097 24.8217 25.5195 24.1866 25.5195C24.1846 25.5195 8.97881 25.5194 8.97676 25.5194C8.34165 25.5194 7.82565 25.0096 7.81591 24.3776L7.81576 12.0304L13.2145 12.0308V16.8784C13.2145 17.0889 13.3851 17.2597 13.5956 17.26L13.9809 17.2606C14.0473 17.2606 14.1132 17.2432 14.1718 17.2094L16.5812 15.8183L18.9914 17.2095C19.05 17.2433 19.1159 17.2606 19.1823 17.2606C19.1856 17.2606 19.5676 17.26 19.5676 17.26C19.7781 17.2598 19.9487 17.089 19.9487 16.8784V12.031L25.3476 12.0296L25.3475 24.3772ZM10.3228 5.33398C22.8386 5.33408 10.3228 5.33398 10.3145 5.33398C9.29994 5.33398 8.44149 5.9884 8.13171 6.89857L6.69795 11.2726C6.67826 11.3311 6.66797 11.3928 6.66797 11.4556L6.66798 24.3706C6.67428 25.6404 7.70557 26.6672 8.97676 26.6672L24.1866 26.6673C25.4578 26.6673 26.4891 25.6405 26.4954 24.3707V11.4557C26.4954 11.3929 26.4851 11.3311 26.4654 11.2727L25.0316 6.89869C24.7219 5.98851 23.8601 5.3341 22.8456 5.3341L10.3228 5.33398Z" fill="white" stroke="white" stroke-width="0.3"/>
</svg>
