<svg width="32" height="32" viewBox="0 0 32 32" fill="none" xmlns="http://www.w3.org/2000/svg">
<path d="M8.88867 19.1113H14.222V20.8891H8.88867V19.1113ZM8.88867 22.6669H17.7776V24.4447H8.88867V22.6669Z" fill="black"/>
<path d="M24.8876 6.66602H7.10981C6.63853 6.66672 6.18675 6.85425 5.85351 7.18749C5.52026 7.52074 5.33274 7.97251 5.33203 8.44379V26.2216C5.33274 26.6929 5.52026 27.1446 5.85351 27.4779C6.18675 27.8111 6.63853 27.9986 7.10981 27.9993H24.8876C25.3589 27.9986 25.8106 27.8111 26.1439 27.4779C26.4771 27.1446 26.6647 26.6929 26.6654 26.2216V8.44379C26.6647 7.97251 26.4771 7.52074 26.1439 7.18749C25.8106 6.85425 25.3589 6.66672 24.8876 6.66602ZM17.7765 8.44379V11.9993H14.2209V8.44379H17.7765ZM7.10981 26.2216V8.44379H12.4431V13.7771H19.5543V8.44379H24.8876L24.8885 26.2216H7.10981Z" fill="black"/>
</svg>
