<svg width="32" height="32" viewBox="0 0 32 32" fill="none" xmlns="http://www.w3.org/2000/svg">
<path d="M22.9333 11.3327V24.3993C22.9333 24.6469 22.835 24.8843 22.66 25.0593C22.4849 25.2343 22.2475 25.3327 22 25.3327H8.93333C8.6858 25.3327 8.4484 25.2343 8.27337 25.0593C8.09833 24.8843 8 24.6469 8 24.3993V7.59935C8 7.35181 8.09833 7.11442 8.27337 6.93938C8.4484 6.76435 8.6858 6.66602 8.93333 6.66602H18.2667M22.9333 11.3327H18.2667V6.66602M22.9333 11.3327L18.2667 6.66602" stroke="black" stroke-linecap="round" stroke-linejoin="round"/>
<path d="M15.4663 17.8652C16.4972 17.8652 17.3329 17.0294 17.3329 15.9985C17.3329 14.9676 16.4972 14.1318 15.4663 14.1318C14.4353 14.1318 13.5996 14.9676 13.5996 15.9985C13.5996 17.0294 14.4353 17.8652 15.4663 17.8652Z" stroke="black" stroke-linecap="round" stroke-linejoin="round"/>
<path d="M19.201 21.5995C19.201 20.6094 18.8077 19.6598 18.1076 18.9597C17.4074 18.2595 16.4578 17.8662 15.4677 17.8662C14.4776 17.8662 13.528 18.2595 12.8278 18.9597C12.1277 19.6598 11.7344 20.6094 11.7344 21.5995" stroke="black" stroke-linecap="round" stroke-linejoin="round"/>
</svg>
