<svg width="32" height="32" viewBox="0 0 32 32" fill="none" xmlns="http://www.w3.org/2000/svg">
<path d="M9.16797 12C7.79162 12 6.66797 13.1236 6.66797 14.5V21.5C6.66797 22.8764 7.79162 24 9.16797 24H24.168C25.5443 24 26.668 22.8764 26.668 21.5V14.5C26.668 13.1236 25.5443 12 24.168 12H9.16797ZM9.16797 13H24.168C25.0076 13 25.668 13.6604 25.668 14.5V21.5C25.668 22.3396 25.0076 23 24.168 23H9.16797C8.32832 23 7.66797 22.3396 7.66797 21.5V14.5C7.66797 13.6604 8.32832 13 9.16797 13Z" fill="black" stroke="black" stroke-width="0.3"/>
<path d="M14.9102 15.0625C14.834 15.0204 14.7482 14.9989 14.6612 15C14.5742 15.0012 14.489 15.0251 14.4141 15.0693C14.3391 15.1135 14.277 15.1764 14.2338 15.252C14.1907 15.3275 14.168 15.413 14.168 15.5V20.5C14.168 20.587 14.1907 20.6725 14.2338 20.7481C14.277 20.8236 14.3391 20.8866 14.4141 20.9308C14.489 20.975 14.5742 20.9988 14.6612 21C14.7482 21.0012 14.834 20.9797 14.9102 20.9375L19.4102 18.4375C19.4883 18.3943 19.5534 18.3309 19.5988 18.254C19.6441 18.177 19.668 18.0893 19.668 18C19.668 17.9107 19.6441 17.823 19.5988 17.7461C19.5534 17.6692 19.4883 17.6058 19.4102 17.5625L14.9102 15.0625ZM15.168 16.3496L18.1387 18L15.168 19.6504V16.3496Z" fill="black" stroke="black" stroke-width="0.3"/>
<path d="M10.168 10C10.0354 10 9.90818 10.0527 9.81442 10.1464C9.72065 10.2402 9.66797 10.3674 9.66797 10.5C9.66797 10.6326 9.72065 10.7598 9.81442 10.8536C9.90818 10.9473 10.0354 11 10.168 11H23.168C23.3006 11 23.4278 10.9473 23.5215 10.8536C23.6153 10.7598 23.668 10.6326 23.668 10.5C23.668 10.3674 23.6153 10.2402 23.5215 10.1464C23.4278 10.0527 23.3006 10 23.168 10H10.168Z" fill="black" stroke="black" stroke-width="0.3"/>
<path d="M12.168 8C12.0354 8 11.9082 8.05268 11.8144 8.14645C11.7206 8.24021 11.668 8.36739 11.668 8.5C11.668 8.63261 11.7206 8.75979 11.8144 8.85355C11.9082 8.94732 12.0354 9 12.168 9H21.168C21.3006 9 21.4278 8.94732 21.5215 8.85355C21.6153 8.75979 21.668 8.63261 21.668 8.5C21.668 8.36739 21.6153 8.24021 21.5215 8.14645C21.4278 8.05268 21.3006 8 21.168 8H12.168Z" fill="black" stroke="black" stroke-width="0.3"/>
</svg>
